REM DIRINDEX 1\2,1\3
REM DIRNAME cjc102,folder01,folder02
TITLE ""
FILE "CD2Track38.mp3" MP3
  TRACK 01 AUDIO
    TITLE "0:"
    INDEX 01 00:00:00
  TRACK 02 AUDIO
    TITLE "3:cjc102_4102"
    INDEX 01 00:00:23
  TRACK 03 AUDIO
    TITLE "0:"
    INDEX 01 00:01:19
  TRACK 04 AUDIO
    TITLE "2:cjc102_4103"
    INDEX 01 00:02:28
  TRACK 05 AUDIO
    TITLE "0:"
    INDEX 01 00:03:29
  TRACK 06 AUDIO
    TITLE "3:cjc102_4104"
    INDEX 01 00:04:03
  TRACK 07 AUDIO
    TITLE "0:"
    INDEX 01 00:04:64
  TRACK 08 AUDIO
    TITLE "2:cjc102_4105"
    INDEX 01 00:05:22
  TRACK 09 AUDIO
    TITLE "0:"
    INDEX 01 00:06:31
  TRACK 10 AUDIO
    TITLE "3:cjc102_4106"
    INDEX 01 00:07:58
  TRACK 11 AUDIO
    TITLE "0:"
    INDEX 01 00:08:58
  TRACK 12 AUDIO
    TITLE "2:cjc102_4107"
    INDEX 01 00:09:47
  TRACK 13 AUDIO
    TITLE "0:"
    INDEX 01 00:10:68
  TRACK 14 AUDIO
    TITLE "3:cjc102_4108"
    INDEX 01 00:11:70
  TRACK 15 AUDIO
    TITLE "0:"
    INDEX 01 00:12:67
  TRACK 16 AUDIO
    TITLE "2:cjc102_4109"
    INDEX 01 00:13:08
  TRACK 17 AUDIO
    TITLE "0:"
    INDEX 01 00:14:11
  TRACK 18 AUDIO
    TITLE "3:cjc102_4110"
    INDEX 01 00:15:42
  TRACK 19 AUDIO
    TITLE "0:"
    INDEX 01 00:16:22
  TRACK 20 AUDIO
    TITLE "2:cjc102_4111"
    INDEX 01 00:16:73
  TRACK 21 AUDIO
    TITLE "0:"
    INDEX 01 00:18:01
  TRACK 22 AUDIO
    TITLE "3:cjc102_4112"
    INDEX 01 00:19:11
  TRACK 23 AUDIO
    TITLE "0:"
    INDEX 01 00:20:08
  TRACK 24 AUDIO
    TITLE "2:cjc102_4113"
    INDEX 01 00:20:37
  TRACK 25 AUDIO
    TITLE "0:"
    INDEX 01 00:21:41
  TRACK 26 AUDIO
    TITLE "3:cjc102_4114"
    INDEX 01 00:22:60
  TRACK 27 AUDIO
    TITLE "0:"
    INDEX 01 00:23:55
  TRACK 28 AUDIO
    TITLE "2:cjc102_4115"
    INDEX 01 00:24:18
  TRACK 29 AUDIO
    TITLE "0:"
    INDEX 01 00:25:25
  TRACK 30 AUDIO
    TITLE "3:cjc102_4116"
    INDEX 01 00:26:09
  TRACK 31 AUDIO
    TITLE "0:"
    INDEX 01 00:27:04
  TRACK 32 AUDIO
    TITLE "2:cjc102_4117"
    INDEX 01 00:27:59
  TRACK 33 AUDIO
    TITLE "0:"
    INDEX 01 00:28:49
  TRACK 34 AUDIO
    TITLE "3:cjc102_4118"
    INDEX 01 00:29:70
  TRACK 35 AUDIO
    TITLE "0:"
    INDEX 01 00:30:61
  TRACK 36 AUDIO
    TITLE "2:cjc102_4119"
    INDEX 01 00:32:27
  TRACK 37 AUDIO
    TITLE "0:"
    INDEX 01 00:33:28
  TRACK 38 AUDIO
    TITLE "3:cjc102_4120"
    INDEX 01 00:34:26
  TRACK 39 AUDIO
    TITLE "0:"
    INDEX 01 00:35:19
  TRACK 40 AUDIO
    TITLE "2:cjc102_4121"
    INDEX 01 00:35:72
  TRACK 41 AUDIO
    TITLE "0:"
    INDEX 01 00:37:10
  TRACK 42 AUDIO
    TITLE "3:cjc102_4122"
    INDEX 01 00:38:35
  TRACK 43 AUDIO
    TITLE "0:"
    INDEX 01 00:39:52
  TRACK 44 AUDIO
    TITLE "2:cjc102_4123"
    INDEX 01 00:40:32
  TRACK 45 AUDIO
    TITLE "0:"
    INDEX 01 00:41:38
  TRACK 46 AUDIO
    TITLE "2:cjc102_4124"
    INDEX 01 00:42:08
  TRACK 47 AUDIO
    TITLE "0:"
    INDEX 01 00:43:31
  TRACK 48 AUDIO
    TITLE "3:cjc102_4125"
    INDEX 01 00:44:05
  TRACK 49 AUDIO
    TITLE "0:"
    INDEX 01 00:45:16
  TRACK 50 AUDIO
    TITLE "2:cjc102_4126"
    INDEX 01 00:45:53
  TRACK 51 AUDIO
    TITLE "0:"
    INDEX 01 00:47:01
  TRACK 52 AUDIO
    TITLE "2:cjc102_4127"
    INDEX 01 00:47:48
  TRACK 53 AUDIO
    TITLE "0:"
    INDEX 01 00:48:71
  TRACK 54 AUDIO
    TITLE "3:cjc102_4128"
    INDEX 01 00:50:05
  TRACK 55 AUDIO
    TITLE "0:"
    INDEX 01 00:51:26
  TRACK 56 AUDIO
    TITLE "2:cjc102_4129"
    INDEX 01 00:51:58
  TRACK 57 AUDIO
    TITLE "0:"
    INDEX 01 00:52:71
  TRACK 58 AUDIO
    TITLE "2:cjc102_4130"
    INDEX 01 00:53:43
  TRACK 59 AUDIO
    TITLE "0:"
    INDEX 01 00:54:58
